<?xml version="1.0" encoding="UTF-8"?>
<svg version="1.1" xmlns="http://www.w3.org/2000/svg" width="300" height="300">
<path d="M0 0 C99 0 198 0 300 0 C300 99 300 198 300 300 C201 300 102 300 0 300 C0 201 0 102 0 0 Z " fill="#000000" transform="translate(0,0)"/>
<path d="M0 0 C2.97 0 5.94 0 9 0 C9 1.32 9 2.64 9 4 C8.34 4 7.68 4 7 4 C7 7.3 7 10.6 7 14 C7.99 14 8.98 14 10 14 C10 9.38 10 4.76 10 0 C11.32 0 12.64 0 14 0 C14 1.65 14 3.3 14 5 C14.66 5 15.32 5 16 5 C16 3.35 16 1.7 16 0 C20.62 0 25.24 0 30 0 C30 0.99 30 1.98 30 3 C28.02 3 26.04 3 24 3 C24 3.99 24 4.98 24 6 C25.65 6 27.3 6 29 6 C29 6.99 29 7.98 29 9 C27.35 9 25.7 9 24 9 C24 9.66 24 10.32 24 11 C26.31 11 28.62 11 31 11 C31 11.99 31 12.98 31 14 C34.63 14 38.26 14 42 14 C42.33 13.01 42.66 12.02 43 11 C43.495 12.485 43.495 12.485 44 14 C51.77388396 16.59129465 60.19037949 14.66288498 68 13 C68 11.35 68 9.7 68 8 C70 11 70 11 70 15 C84.85 15 99.7 15 115 15 C110 20 110 20 108.3828125 21.5546875 C105.04031299 25.04826043 102.81160691 28.15371416 102 33 C103.04935056 37.74806247 105.19114249 42.07855961 107.29296875 46.4375 C109 50 109 50 109 52 C106.03 52 103.06 52 100 52 C98.68 49.03 97.36 46.06 96 43 C93.23776722 45.76223278 93.42143709 48.20706617 93 52 C89.7 52 86.4 52 83 52 C83.3081665 52.9286084 83.61633301 53.8572168 83.93383789 54.81396484 C85.07253437 58.25178482 86.20144661 61.69275069 87.32739258 65.13476562 C87.81657826 66.62555534 88.30843213 68.11547222 88.80297852 69.60449219 C89.51236905 71.74191363 90.21218184 73.88226519 90.91015625 76.0234375 C91.13405533 76.69120209 91.35795441 77.35896667 91.58863831 78.04696655 C93.11387171 82.77225659 93.11387171 82.77225659 92 85 C91.54375244 84.6690332 91.08750488 84.33806641 90.61743164 83.99707031 C86.7901639 81.22245635 82.95718709 78.45618951 79.1171875 75.69921875 C75.78136517 73.30044655 72.4778734 70.86560405 69.1953125 68.39453125 C67.69279744 67.28373363 66.19019675 66.17305181 64.6875 65.0625 C63.98955322 64.52463867 63.29160645 63.98677734 62.57250977 63.43261719 C58.92586287 60.61496204 58.92586287 60.61496204 54.546875 60.30859375 C50.81548229 62.78665057 47.16252881 65.33408834 43.5625 68 C41.96249556 69.17092277 40.36223173 70.34149118 38.76171875 71.51171875 C37.96556152 72.09614746 37.1694043 72.68057617 36.34912109 73.28271484 C32.87756267 75.82053879 29.37828457 78.31874535 25.875 80.8125 C24.72656092 81.63150821 23.57812325 82.45051838 22.4296875 83.26953125 C21.62789062 83.84058594 20.82609375 84.41164063 20 85 C19 83 19 83 19.80444336 80.01904297 C20.44071655 78.14949951 20.44071655 78.14949951 21.08984375 76.2421875 C21.31321915 75.57913605 21.53659454 74.91608459 21.76673889 74.23294067 C22.48333673 72.11118381 23.21027518 69.9931352 23.9375 67.875 C24.42451216 66.43903389 24.91084904 65.00283858 25.39648438 63.56640625 C26.58982572 60.04157539 27.79246708 56.51999793 29 53 C31.475 52.505 31.475 52.505 34 52 C32.78183594 50.83984375 32.78183594 50.83984375 31.5390625 49.65625 C27.94671966 45.33020604 28.26187764 40.90724892 28.375 35.5 C28.35566406 34.57574219 28.33632812 33.65148437 28.31640625 32.69921875 C28.34928986 28.10208984 28.53597521 24.96018868 31.5390625 21.34375 C32.35117188 20.5703125 33.16328125 19.796875 34 19 C32.35 19 30.7 19 29 19 C29 19.66 29 20.32 29 21 C28.01 21.33 27.02 21.66 26 22 C26.66 22.99 27.32 23.98 28 25 C28.46828165 30.05744185 27.97029592 32.88728257 25 37 C24.34 37.99 23.68 38.98 23 40 C23.64032093 42.23878538 23.64032093 42.23878538 24.875 44.5 C26.32408708 47.37898096 27 48.72410148 27 52 C24.03 52 21.06 52 18 52 C17.66226563 51.21753906 17.32453125 50.43507812 16.9765625 49.62890625 C16.53054687 48.61699219 16.08453125 47.60507813 15.625 46.5625 C14.96371094 45.04849609 14.96371094 45.04849609 14.2890625 43.50390625 C13.24923714 40.87856453 13.24923714 40.87856453 11 40 C11 43.96 11 47.92 11 52 C8.03 52 5.06 52 2 52 C1.99589111 51.01604248 1.99178223 50.03208496 1.98754883 49.01831055 C1.96577338 45.36689905 1.9115028 41.71656767 1.84741211 38.06567383 C1.82421776 36.48570103 1.80983296 34.9055733 1.80444336 33.32543945 C1.79516315 31.05321561 1.75420253 28.78343285 1.70703125 26.51171875 C1.7109639 25.80536789 1.71489655 25.09901703 1.71894836 24.3712616 C1.70649636 22.12532929 1.70649636 22.12532929 1 19 C-1.43651414 17.11299296 -1.43651414 17.11299296 -4 16 C-4 15.34 -4 14.68 -4 14 C-2.02 14 -0.04 14 2 14 C2 10.7 2 7.4 2 4 C1.34 4 0.68 4 0 4 C0 2.68 0 1.36 0 0 Z " fill="#260D0D" transform="translate(95,122)"/>
<path d="M0 0 C4.17586866 2.0513039 6.26148339 3.73628558 8 8 C8.4303404 11.11508586 8.3702104 14.2330221 8.375 17.375 C8.39949219 18.21289062 8.42398438 19.05078125 8.44921875 19.9140625 C8.47527739 25.43849372 7.72789196 28.65303573 4 33 C-0.66979209 36.11319473 -5.53558808 35.72810766 -11 35 C-14.23025335 33.372775 -16.36088661 31.27822678 -18 28 C-18.31927202 24.59065978 -18.32433113 21.17245187 -18.375 17.75 C-18.41238281 16.80769531 -18.44976562 15.86539063 -18.48828125 14.89453125 C-18.54596436 10.32474742 -18.56408213 7.03445884 -15.6015625 3.390625 C-10.86445577 -0.962392 -6.22294496 -0.64072635 0 0 Z " fill="#F3F2F2" transform="translate(142,140)"/>
<path d="M0 0 C2.866875 -0.061875 5.73375 -0.12375 8.6875 -0.1875 C10.02880981 -0.22846802 10.02880981 -0.22846802 11.3972168 -0.27026367 C16.08935444 -0.3192004 19.22122733 -0.09960512 23 3 C25.48386059 6.72579089 25.3804212 8.58711402 25 13 C23.625 15.75 23.625 15.75 22 18 C21.34 18.99 20.68 19.98 20 21 C20.64032093 23.23878538 20.64032093 23.23878538 21.875 25.5 C23.32408708 28.37898096 24 29.72410148 24 33 C21.03 33 18.06 33 15 33 C14.66226563 32.21753906 14.32453125 31.43507812 13.9765625 30.62890625 C13.53054687 29.61699219 13.08453125 28.60507813 12.625 27.5625 C11.96371094 26.04849609 11.96371094 26.04849609 11.2890625 24.50390625 C10.24923714 21.87856453 10.24923714 21.87856453 8 21 C8 24.96 8 28.92 8 33 C5.36 33 2.72 33 0 33 C0 22.11 0 11.22 0 0 Z " fill="#FAFAFA" transform="translate(98,141)"/>
<path d="M0 0 C0.66 0 1.32 0 2 0 C3.27602233 3.7690969 4.54483463 7.540585 5.8125 11.3125 C6.34713867 12.8912793 6.34713867 12.8912793 6.89257812 14.50195312 C12.95217226 32.5695503 12.95217226 32.5695503 14 42 C-5.04754786 45.66550749 -5.04754786 45.66550749 -12 42 C-11.59319965 32.83134603 -8.39894265 24.52981593 -5.4375 15.9375 C-4.91127076 14.3889566 -4.38587276 12.84013047 -3.86132812 11.29101562 C-2.58378787 7.52401266 -1.29502926 3.76102455 0 0 Z " fill="#E30100" transform="translate(150,94)"/>
<path d="M0 0 C2.97 0 5.94 0 9 0 C9.33 2.64 9.66 5.28 10 8 C10.24492187 7.4225 10.48984375 6.845 10.7421875 6.25 C11.97611977 3.79915522 13.05573579 1.94853732 15 0 C18.4263204 -0.7114192 21.55019843 -0.48230236 25 0 C24.41347656 0.81339844 23.82695312 1.62679687 23.22265625 2.46484375 C18.99393822 8.88379272 18.99393822 8.88379272 18.35546875 16.29931641 C19.98581524 21.47825435 22.50455909 26.1955907 25 31 C25 31.66 25 32.32 25 33 C22.03 33 19.06 33 16 33 C14.68 30.03 13.36 27.06 12 24 C9.23776722 26.76223278 9.42143709 29.20706617 9 33 C6.03 33 3.06 33 0 33 C0 22.11 0 11.22 0 0 Z " fill="#F8F8F8" transform="translate(179,141)"/>
<path d="M0 0 C4.11275909 1.54228466 5.55780938 2.33671407 8 6 C8.125 8.6875 8.125 8.6875 8 11 C5.03 11 2.06 11 -1 11 C-1.33 10.34 -1.66 9.68 -2 9 C-3.98 9 -5.96 9 -8 9 C-8 14.61 -8 20.22 -8 26 C-5.69 26 -3.38 26 -1 26 C-0.67 25.34 -0.34 24.68 0 24 C2.64 24 5.28 24 8 24 C7.38976378 30.46850394 7.38976378 30.46850394 5.625 32.875 C1.06912362 36.02906826 -4.71104956 35.43364747 -10 35 C-13.05198606 33.7542914 -14.3956735 32.98812825 -16.09790039 30.20483398 C-17.8109777 26.01787833 -17.41141761 21.52838558 -17.4375 17.0625 C-17.47037109 16.07314453 -17.50324219 15.08378906 -17.53710938 14.06445312 C-17.59107092 6.76983383 -17.59107092 6.76983383 -14.59765625 2.87109375 C-9.79606477 -0.5874962 -5.80636508 -0.50761167 0 0 Z " fill="#F6F5F5" transform="translate(169,140)"/>
<path d="M0 0 C1.21236328 0.01353516 1.21236328 0.01353516 2.44921875 0.02734375 C3.37154297 0.04474609 3.37154297 0.04474609 4.3125 0.0625 C3.6525 0.3925 2.9925 0.7225 2.3125 1.0625 C2.3125 1.7225 2.3125 2.3825 2.3125 3.0625 C-0.11024241 4.91789134 -2.54371364 6.65795736 -5.0625 8.375 C-6.61139067 9.44818959 -8.1595417 10.52244729 -9.70703125 11.59765625 C-10.92447021 12.44094482 -10.92447021 12.44094482 -12.16650391 13.30126953 C-16.39619134 16.2562342 -20.57263764 19.28422716 -24.75 22.3125 C-25.93698486 23.17161987 -25.93698486 23.17161987 -27.14794922 24.0480957 C-28.9950884 25.38537527 -30.84162191 26.72348054 -32.6875 28.0625 C-34.08191158 25.27367685 -33.25932299 24.06502888 -32.32421875 21.125 C-32.01419922 20.14789063 -31.70417969 19.17078125 -31.38476562 18.1640625 C-31.05154297 17.14054687 -30.71832031 16.11703125 -30.375 15.0625 C-30.05337891 14.03898438 -29.73175781 13.01546875 -29.40039062 11.9609375 C-26.9462008 4.3212008 -26.9462008 4.3212008 -24.6875 2.0625 C-21.85178878 1.78038309 -19.09220104 1.59622646 -16.25 1.5 C-10.71237797 1.28400976 -5.47170229 -0.07930003 0 0 Z " fill="#E00101" transform="translate(147.6875,178.9375)"/>
<path d="M0 0 C4.27047833 -0.14486019 8.54032833 -0.23392616 12.8125 -0.3125 C14.63491211 -0.3753418 14.63491211 -0.3753418 16.49414062 -0.43945312 C17.65751953 -0.45556641 18.82089844 -0.47167969 20.01953125 -0.48828125 C21.62985229 -0.52755737 21.62985229 -0.52755737 23.27270508 -0.56762695 C26 0 26 0 27.77124023 2.24462891 C29.58584893 6.31370773 30.93011407 10.436314 32.25 14.6875 C32.53101563 15.55439453 32.81203125 16.42128906 33.1015625 17.31445312 C33.49214844 18.55678711 33.49214844 18.55678711 33.890625 19.82421875 C34.24688965 20.95476685 34.24688965 20.95476685 34.61035156 22.1081543 C35 24 35 24 34 26 C28.81997165 22.26855544 23.64439961 18.5310053 18.47265625 14.78808594 C16.87991217 13.63630299 15.28623371 12.4858105 13.69140625 11.33691406 C11.60390758 9.83268708 9.52025422 8.32328622 7.4375 6.8125 C6.80126709 6.35576904 6.16503418 5.89903809 5.50952148 5.4284668 C1.1141006 2.22820119 1.1141006 2.22820119 0 0 Z " fill="#E00101" transform="translate(153,181)"/>
<path d="M0 0 C2.97 0 5.94 0 9 0 C9 1.32 9 2.64 9 4 C8.34 4 7.68 4 7 4 C7 7.3 7 10.6 7 14 C7.99 14 8.98 14 10 14 C10 9.38 10 4.76 10 0 C11.32 0 12.64 0 14 0 C14 1.65 14 3.3 14 5 C14.66 5 15.32 5 16 5 C16 3.35 16 1.7 16 0 C20.62 0 25.24 0 30 0 C30 0.99 30 1.98 30 3 C28.02 3 26.04 3 24 3 C24 3.99 24 4.98 24 6 C25.65 6 27.3 6 29 6 C29 6.99 29 7.98 29 9 C27.35 9 25.7 9 24 9 C24 9.66 24 10.32 24 11 C26.31 11 28.62 11 31 11 C31 11.99 31 12.98 31 14 C34.63 14 38.26 14 42 14 C42 14.33 42 14.66 42 15 C26.82 15.33 11.64 15.66 -4 16 C-4 15.34 -4 14.68 -4 14 C-2.02 14 -0.04 14 2 14 C2 10.7 2 7.4 2 4 C1.34 4 0.68 4 0 4 C0 2.68 0 1.36 0 0 Z " fill="#2B2020" transform="translate(95,122)"/>
<path d="M0 0 C2 3 2 3 2 7 C16.85 7 31.7 7 47 7 C45.35 8.65 43.7 10.3 42 12 C41.15321434 11.26568756 41.15321434 11.26568756 40.2893219 10.51654053 C37.66201071 8.77610206 36.47695466 8.65214481 33.37084961 8.73535156 C32.45988022 8.75237122 31.54891083 8.76939087 30.6103363 8.78692627 C29.14612999 8.83825714 29.14612999 8.83825714 27.65234375 8.890625 C26.64410049 8.91469421 25.63585724 8.93876343 24.59706116 8.96356201 C22.46775297 9.01717565 20.33861957 9.07816695 18.2097168 9.14599609 C14.94668 9.24970822 11.68366014 9.33195048 8.41992188 9.41015625 C6.35152904 9.46489561 4.28316777 9.52084417 2.21484375 9.578125 C0.74760109 9.61731049 0.74760109 9.61731049 -0.74928284 9.6572876 C-1.65710007 9.68691589 -2.5649173 9.71654419 -3.50024414 9.74707031 C-4.29870255 9.77166321 -5.09716095 9.7962561 -5.91981506 9.82159424 C-8.19500501 9.93499862 -8.19500501 9.93499862 -11 11 C-17.1816788 11.3434266 -17.1816788 11.3434266 -20.3828125 10 C-23.28069581 8.89274907 -25.41098483 8.76477645 -28.5 8.8125 C-29.4178125 8.81894531 -30.335625 8.82539063 -31.28125 8.83203125 C-33.93865687 8.99621012 -36.40626246 9.41265001 -39 10 C-39 10.99 -39 11.98 -39 13 C-44.75 13.125 -44.75 13.125 -47 12 C-48.3734635 11.84995027 -49.7528526 11.75161994 -51.1328125 11.68359375 C-51.85871582 11.64548584 -52.58461914 11.60737793 -53.33251953 11.56811523 C-54.25403809 11.52501221 -55.17555664 11.48190918 -56.125 11.4375 C-60.518125 11.2209375 -60.518125 11.2209375 -65 11 C-65 21.89 -65 32.78 -65 44 C-65.33 44 -65.66 44 -66 44 C-66.0093457 43.0212793 -66.01869141 42.04255859 -66.02832031 41.03417969 C-66.06825458 37.39586209 -66.13402134 33.75838709 -66.20751953 30.12060547 C-66.23570954 28.54747356 -66.25693398 26.97420053 -66.27099609 25.40087891 C-66.29245442 23.13631044 -66.33911348 20.87343496 -66.390625 18.609375 C-66.39185364 17.90818542 -66.39308228 17.20699585 -66.39434814 16.48455811 C-66.54759764 11.35218713 -67.05052594 10.94947406 -71 7 C-56.15 7 -41.3 7 -26 7 C-25.67 5.68 -25.34 4.36 -25 3 C-24.505 4.485 -24.505 4.485 -24 6 C-16.22611604 8.59129465 -7.80962051 6.66288498 0 5 C0 3.35 0 1.7 0 0 Z " fill="#940000" transform="translate(163,130)"/>
<path d="M0 0 C0.75042068 0.02361099 1.50084137 0.04722198 2.27400208 0.07154846 C4.66854344 0.14806298 7.06275138 0.23213951 9.45703125 0.31640625 C11.08136395 0.36963919 12.70571287 0.42237951 14.33007812 0.47460938 C18.31010659 0.60366152 22.28985269 0.73949579 26.26953125 0.87890625 C26.76453125 3.35390625 26.76453125 3.35390625 27.26953125 5.87890625 C23.31856147 5.92830287 19.36771095 5.9646238 15.41650391 5.98876953 C13.41041765 6.00378732 11.40441801 6.02919606 9.3984375 6.0546875 C8.14160156 6.06113281 6.88476562 6.06757813 5.58984375 6.07421875 C4.42727051 6.08469238 3.26469727 6.09516602 2.06689453 6.10595703 C-0.73046875 5.87890625 -0.73046875 5.87890625 -2.73046875 3.87890625 C-6.42397575 3.67744223 -9.20987307 3.70537436 -12.73046875 4.87890625 C-14.13711801 5.02382748 -15.54858205 5.12519556 -16.9609375 5.1953125 C-17.76337891 5.23720703 -18.56582031 5.27910156 -19.39257812 5.32226562 C-20.22595703 5.36158203 -21.05933594 5.40089844 -21.91796875 5.44140625 C-22.76294922 5.48458984 -23.60792969 5.52777344 -24.47851562 5.57226562 C-26.56231308 5.67822143 -28.64636978 5.77905645 -30.73046875 5.87890625 C-30.07046875 4.55890625 -29.41046875 3.23890625 -28.73046875 1.87890625 C-27.46589844 1.81832031 -26.20132813 1.75773438 -24.8984375 1.6953125 C-23.23827004 1.61089721 -21.57811438 1.5262497 -19.91796875 1.44140625 C-19.08458984 1.40208984 -18.25121094 1.36277344 -17.39257812 1.32226562 C-16.59013672 1.28037109 -15.78769531 1.23847656 -14.9609375 1.1953125 C-13.85335083 1.14032593 -13.85335083 1.14032593 -12.72338867 1.08422852 C-1.61690071 -0.06002683 -1.61690071 -0.06002683 0 0 Z " fill="#740000" transform="translate(152.73046875,176.12109375)"/>
<path d="M0 0 C1.41732422 -0.02126953 1.41732422 -0.02126953 2.86328125 -0.04296875 C5.84813321 0.20060838 7.94629393 1.0314065 10.6875 2.1875 C14.4191971 2.38051882 17.13760155 2.37079948 20.6875 1.1875 C22.1895889 1.05908967 23.69626655 0.9808076 25.203125 0.93457031 C26.11416992 0.90494202 27.02521484 0.87531372 27.96386719 0.8447876 C29.43581543 0.80560211 29.43581543 0.80560211 30.9375 0.765625 C32.4519873 0.72378082 32.4519873 0.72378082 33.99707031 0.68109131 C36.13209196 0.62470463 38.26718823 0.57108598 40.40234375 0.52001953 C43.67505059 0.43781272 46.94666816 0.33432093 50.21875 0.23046875 C52.29163388 0.17836632 54.36455036 0.12754199 56.4375 0.078125 C57.41879883 0.04390442 58.40009766 0.00968384 59.41113281 -0.02557373 C60.7777002 -0.05110321 60.7777002 -0.05110321 62.171875 -0.07714844 C62.97334961 -0.09855896 63.77482422 -0.11996948 64.60058594 -0.14202881 C67.1912555 0.26704422 68.05208305 1.19527822 69.6875 3.1875 C68.69169922 3.1565625 68.69169922 3.1565625 67.67578125 3.125 C64.82095693 3.19168203 62.43234183 3.37747787 59.6875 4.1875 C57.40903055 6.60390369 56.13663915 9.22856007 54.6875 12.1875 C54.3575 12.1875 54.0275 12.1875 53.6875 12.1875 C53.6875 9.2175 53.6875 6.2475 53.6875 3.1875 C51.93717156 3.32933696 50.18724466 3.47613429 48.4375 3.625 C47.46296875 3.70621094 46.4884375 3.78742188 45.484375 3.87109375 C42.76916332 4.08879449 42.76916332 4.08879449 40.578125 4.84765625 C38.03163419 5.30539324 36.9414903 4.37471627 34.6875 3.1875 C29.85204477 2.62829769 25.17706399 2.90978868 20.5 4.25 C15.88580877 5.38463719 11.99330737 5.34040369 7.6875 3.1875 C6.31201844 3.10441362 4.93264204 3.08013984 3.5546875 3.08984375 C2.74902344 3.09306641 1.94335938 3.09628906 1.11328125 3.09960938 C-0.14935547 3.11217773 -0.14935547 3.11217773 -1.4375 3.125 C-2.71173828 3.13176758 -2.71173828 3.13176758 -4.01171875 3.13867188 C-6.11200909 3.15047126 -8.2122633 3.16840694 -10.3125 3.1875 C-6.41932817 0.59205212 -4.63053571 0.03132974 0 0 Z " fill="#660B0B" transform="translate(134.3125,137.8125)"/>
<path d="M0 0 C3 0.125 3 0.125 4 1.125 C4.09986975 3.96835048 4.13877881 6.78197163 4.125 9.625 C4.12886719 10.42292969 4.13273438 11.22085938 4.13671875 12.04296875 C4.12660767 17.99839233 4.12660767 17.99839233 3 19.125 C0 19.25 0 19.25 -3 19.125 C-4.8855253 17.2394747 -4.13246689 14.54731169 -4.13671875 12.04296875 C-4.13285156 11.24503906 -4.12898437 10.44710937 -4.125 9.625 C-4.12886719 8.82707031 -4.13273438 8.02914062 -4.13671875 7.20703125 C-4.1247745 0.1718656 -4.1247745 0.1718656 0 0 Z " fill="#1C0606" transform="translate(137,147.875)"/>
<path d="M0 0 C10.56 0 21.12 0 32 0 C32 0.33 32 0.66 32 1 C29.36 1 26.72 1 24 1 C24 1.66 24 2.32 24 3 C26.64 3.33 29.28 3.66 32 4 C32 4.66 32 5.32 32 6 C26.25 6.125 26.25 6.125 24 5 C22.6265365 4.84995027 21.2471474 4.75161994 19.8671875 4.68359375 C19.14128418 4.64548584 18.41538086 4.60737793 17.66748047 4.56811523 C16.28520264 4.50346069 16.28520264 4.50346069 14.875 4.4375 C10.481875 4.2209375 10.481875 4.2209375 6 4 C6 14.89 6 25.78 6 37 C5.67 37 5.34 37 5 37 C4.9906543 36.0212793 4.98130859 35.04255859 4.97167969 34.03417969 C4.93174542 30.39586209 4.86597866 26.75838709 4.79248047 23.12060547 C4.76429046 21.54747356 4.74306602 19.97420053 4.72900391 18.40087891 C4.70754558 16.13631044 4.66088652 13.87343496 4.609375 11.609375 C4.60814636 10.90818542 4.60691772 10.20699585 4.60565186 9.48455811 C4.45240236 4.35218713 3.94947406 3.94947406 0 0 Z " fill="#6E3333" transform="translate(92,137)"/>
<path d="M0 0 C-0.804375 0.61875 -1.60875 1.2375 -2.4375 1.875 C-5.03874519 3.74164041 -5.03874519 3.74164041 -6 6 C-6.29305322 9.40992687 -6.27796715 12.8289453 -6.3125 16.25 C-6.34150391 17.19230469 -6.37050781 18.13460937 -6.40039062 19.10546875 C-6.45486858 25.08128087 -5.90699257 28.40716455 -2 33 C-3.98 32.67 -5.96 32.34 -8 32 C-8 32.66 -8 33.32 -8 34 C-11.3 34 -14.6 34 -18 34 C-18 33.67 -18 33.34 -18 33 C-15.03 33 -12.06 33 -9 33 C-10.65 28.71 -12.3 24.42 -14 20 C-12.68 18.68 -11.36 17.36 -10 16 C-8.58066487 11.74199462 -8.27348323 7.77088462 -10 3.5625 C-10.33 3.046875 -10.66 2.53125 -11 2 C-9.68 2 -8.36 2 -7 2 C-7 1.34 -7 0.68 -7 0 C-3.98968256 -0.93423645 -3.13349732 -1.04449911 0 0 Z " fill="#110E0E" transform="translate(131,141)"/>
<path d="M0 0 C1.21236328 0.01353516 1.21236328 0.01353516 2.44921875 0.02734375 C3.37154297 0.04474609 3.37154297 0.04474609 4.3125 0.0625 C3.3225 0.5575 3.3225 0.5575 2.3125 1.0625 C2.3125 1.7225 2.3125 2.3825 2.3125 3.0625 C0.0625 4.8125 0.0625 4.8125 -2.6875 6.0625 C-5 5.25 -5 5.25 -6.6875 4.0625 C-6.6875 4.7225 -6.6875 5.3825 -6.6875 6.0625 C-13.2875 6.3925 -19.8875 6.7225 -26.6875 7.0625 C-25.6875 3.0625 -25.6875 3.0625 -24.6875 2.0625 C-21.89196508 1.85062788 -19.11212369 1.68601281 -16.3125 1.5625 C-10.758893 1.31506206 -5.4910132 -0.0795799 0 0 Z " fill="#B30000" transform="translate(147.6875,178.9375)"/>
<path d="M0 0 C8.26086957 -0.31772575 8.26086957 -0.31772575 11 2 C11.75 5.125 11.75 5.125 12 8 C11.195625 8.28875 10.39125 8.5775 9.5625 8.875 C6.8673532 9.73262568 6.8673532 9.73262568 6 12 C5.67 11.67 5.34 11.34 5 11 C3.35 11 1.7 11 0 11 C0 7.37 0 3.74 0 0 Z " fill="#590606" transform="translate(162,154)"/>
<path d="M0 0 C1.32 0 2.64 0 4 0 C4 1.65 4 3.3 4 5 C4.66 5 5.32 5 6 5 C6 3.35 6 1.7 6 0 C7.32 0 8.64 0 10 0 C10 4.29 10 8.58 10 13 C9.01 13 8.02 13 7 13 C7 11.35 7 9.7 7 8 C6.01 8 5.02 8 4 8 C4 9.98 4 11.96 4 14 C2.68 14 1.36 14 0 14 C0 9.38 0 4.76 0 0 Z " fill="#D7D8D8" transform="translate(105,122)"/>
<path d="M0 0 C1.4540625 0.0309375 1.4540625 0.0309375 2.9375 0.0625 C3.2675 1.0525 3.5975 2.0425 3.9375 3.0625 C5.5875 3.0625 7.2375 3.0625 8.9375 3.0625 C8.9375 3.7225 8.9375 4.3825 8.9375 5.0625 C7.9475 5.0625 6.9575 5.0625 5.9375 5.0625 C6.9275 5.3925 7.9175 5.7225 8.9375 6.0625 C8.6075 6.7225 8.2775 7.3825 7.9375 8.0625 C4.6375 7.4025 1.3375 6.7425 -2.0625 6.0625 C-2.0625 9.6925 -2.0625 13.3225 -2.0625 17.0625 C-0.0825 16.7325 1.8975 16.4025 3.9375 16.0625 C3.9375 17.0525 3.9375 18.0425 3.9375 19.0625 C1.60455225 19.10491723 -0.72952567 19.10342937 -3.0625 19.0625 C-4.9480253 17.1769747 -4.19496689 14.48481169 -4.19921875 11.98046875 C-4.19535156 11.18253906 -4.19148437 10.38460937 -4.1875 9.5625 C-4.19136719 8.76457031 -4.19523438 7.96664062 -4.19921875 7.14453125 C-4.1872339 0.08545375 -4.1872339 0.08545375 0 0 Z " fill="#3D1A1A" transform="translate(164.0625,147.9375)"/>
<path d="M0 0 C8.58 0 17.16 0 26 0 C26.66 1.32 27.32 2.64 28 4 C27.14277344 3.98839844 26.28554687 3.97679687 25.40234375 3.96484375 C19.47675118 3.91808034 13.83745488 3.98479046 8 5 C7.01 5 6.02 5 5 5 C3.35 3.35 1.7 1.7 0 0 Z " fill="#C00100" transform="translate(153,181)"/>
<path d="M0 0 C2.97 0 5.94 0 9 0 C9 0.99 9 1.98 9 3 C7.02 3 5.04 3 3 3 C3 3.99 3 4.98 3 6 C4.65 6 6.3 6 8 6 C8 6.99 8 7.98 8 9 C6.35 9 4.7 9 3 9 C3 9.66 3 10.32 3 11 C4.98 11 6.96 11 9 11 C9 11.99 9 12.98 9 14 C6.03 14 3.06 14 0 14 C0 9.38 0 4.76 0 0 Z " fill="#E0E0E0" transform="translate(116,122)"/>
<path d="M0 0 C0.33 0.66 0.66 1.32 1 2 C3.02543556 2.25719817 5.05350224 2.50842122 7.08984375 2.65625 C9 3 9 3 11 5 C10.16855469 4.98839844 9.33710938 4.97679687 8.48046875 4.96484375 C6.85044922 4.95130859 6.85044922 4.95130859 5.1875 4.9375 C3.56908203 4.92009766 3.56908203 4.92009766 1.91796875 4.90234375 C-1.06512169 4.86375234 -1.06512169 4.86375234 -4 6 C-5.47965926 6.14573058 -6.96403843 6.24663268 -8.44921875 6.31640625 C-9.72055664 6.37924805 -9.72055664 6.37924805 -11.01757812 6.44335938 C-12.33918945 6.50233398 -12.33918945 6.50233398 -13.6875 6.5625 C-14.58017578 6.60568359 -15.47285156 6.64886719 -16.39257812 6.69335938 C-18.59490108 6.79935353 -20.79733473 6.90142051 -23 7 C-22.67 5.68 -22.34 4.36 -22 3 C-16.49538557 1.99916101 -11.26221908 1.98279762 -5.671875 2.16015625 C-2.77133889 2.21150246 -2.77133889 2.21150246 0 0 Z " fill="#400605" transform="translate(146,172)"/>
<path d="M0 0 C0.99 1.485 0.99 1.485 2 3 C7.36421804 5.18542217 13.4823781 3.93916968 19 3 C20.99965715 2.96296931 23.00056665 2.95239444 25 3 C25.33 3.99 25.66 4.98 26 6 C6.53901115 9.74507002 6.53901115 9.74507002 0 6 C0 4.02 0 2.04 0 0 Z " fill="#C70000" transform="translate(138,130)"/>
<path d="M0 0 C1.65 0 3.3 0 5 0 C5 4.62 5 9.24 5 14 C2.69 13.67 0.38 13.34 -2 13 C-1.34 12.34 -0.68 11.68 0 11 C0.24212873 9.01871492 0.24212873 9.01871492 0.125 6.875 C0.08375 5.59625 0.0425 4.3175 0 3 C-1.32 2.67 -2.64 2.34 -4 2 C-3.34 1.67 -2.68 1.34 -2 1 C-1.34 1.33 -0.68 1.66 0 2 C0 1.34 0 0.68 0 0 Z " fill="#220000" transform="translate(173,151)"/>
<path d="M0 0 C0 10.89 0 21.78 0 33 C-0.66 32.34 -1.32 31.68 -2 31 C-2.99 31 -3.98 31 -5 31 C-4.505 30.13375 -4.01 29.2675 -3.5 28.375 C-0.24024166 20.82039419 -1.15515974 11.51165686 -4 4 C-4.33 3.01 -4.66 2.02 -5 1 C-2 0 -2 0 0 0 Z " fill="#272324" transform="translate(179,141)"/>
<path d="M0 0 C14.85 0 29.7 0 45 0 C43.35 1.65 41.7 3.3 40 5 C39.51047852 4.5155542 39.02095703 4.0311084 38.51660156 3.53198242 C35.01716938 1.40170138 31.71575364 1.52145853 27.734375 1.48828125 C26.94097717 1.47033005 26.14757935 1.45237885 25.33013916 1.43388367 C22.80347969 1.37983074 20.27700856 1.34590188 17.75 1.3125 C16.03382799 1.2793224 14.31768081 1.24483233 12.6015625 1.20898438 C8.40117768 1.12410745 4.20084823 1.05727279 0 1 C0 0.67 0 0.34 0 0 Z " fill="#AF0102" transform="translate(165,137)"/>
<path d="M0 0 C2.97 0 5.94 0 9 0 C9 0.99 9 1.98 9 3 C8.01 3 7.02 3 6 3 C6 6.63 6 10.26 6 14 C5.01 14 4.02 14 3 14 C3 10.37 3 6.74 3 3 C2.01 3 1.02 3 0 3 C0 2.01 0 1.02 0 0 Z " fill="#EFEFEF" transform="translate(95,122)"/>
<path d="M0 0 C8.25 0 16.5 0 25 0 C25 0.66 25 1.32 25 2 C17.30881404 2.75166913 9.72772107 3.13690844 2 3 C2 2.34 2 1.68 2 1 C1.34 0.67 0.68 0.34 0 0 Z " fill="#5D0000" transform="translate(154,177)"/>
<path d="M0 0 C1.21171875 0.00322266 2.4234375 0.00644531 3.671875 0.00976562 C4.94289062 0.01814453 6.21390625 0.02652344 7.5234375 0.03515625 C8.8021875 0.03966797 10.0809375 0.04417969 11.3984375 0.04882812 C14.56515042 0.06064422 17.73177106 0.0771181 20.8984375 0.09765625 C20.8984375 1.08765625 20.8984375 2.07765625 20.8984375 3.09765625 C16.44015824 3.15548665 11.9819747 3.1911948 7.5234375 3.22265625 C6.25242188 3.23941406 4.98140625 3.25617188 3.671875 3.2734375 C2.46015625 3.27988281 1.2484375 3.28632813 0 3.29296875 C-1.12067871 3.30344238 -2.24135742 3.31391602 -3.39599609 3.32470703 C-6.1015625 3.09765625 -6.1015625 3.09765625 -8.1015625 1.09765625 C-5.33538687 -0.28543156 -3.0913825 -0.01444571 0 0 Z " fill="#880001" transform="translate(158.1015625,178.90234375)"/>
<path d="M0 0 C2.31 0 4.62 0 7 0 C7.38218767 1.65614657 7.71395102 3.32457024 8 5 C7 6 7 6 3.4375 6.0625 C2.303125 6.041875 1.16875 6.02125 0 6 C0 4.02 0 2.04 0 0 Z " fill="#1D1919" transform="translate(106,148)"/>
<path d="M0 0 C8.58 0 17.16 0 26 0 C26 0.33 26 0.66 26 1 C22.56272197 1.33564902 19.12514387 1.66812049 15.6875 2 C14.71103516 2.09539062 13.73457031 2.19078125 12.72851562 2.2890625 C11.32182617 2.42441406 11.32182617 2.42441406 9.88671875 2.5625 C9.02264404 2.64628906 8.15856934 2.73007813 7.26831055 2.81640625 C5 3 5 3 2 3 C1.34 2.01 0.68 1.02 0 0 Z " fill="#A60000" transform="translate(153,181)"/>
<path d="M0 0 C-0.97498145 1.5027237 -1.95509389 3.00211963 -2.9375 4.5 C-3.48277344 5.3353125 -4.02804688 6.170625 -4.58984375 7.03125 C-5.05519531 7.6809375 -5.52054688 8.330625 -6 9 C-6.33 9 -6.66 9 -7 9 C-7 6.03 -7 3.06 -7 0 C-3.86650268 -1.04449911 -3.01031744 -0.93423645 0 0 Z " fill="#1E0808" transform="translate(195,141)"/>
<path d="M0 0 C1.4540625 0.0309375 1.4540625 0.0309375 2.9375 0.0625 C2.9375 1.7125 2.9375 3.3625 2.9375 5.0625 C0.9575 5.0625 -1.0225 5.0625 -3.0625 5.0625 C-3.625 3.125 -3.625 3.125 -4.0625 1.0625 C-3.0625 0.0625 -3.0625 0.0625 0 0 Z " fill="#6D0000" transform="translate(167.0625,155.9375)"/>
<path d="M0 0 C8.26086957 -0.31772575 8.26086957 -0.31772575 11 2 C11.75 5.125 11.75 5.125 12 8 C10.68 8.33 9.36 8.66 8 9 C8.66 8.67 9.32 8.34 10 8 C10 6.35 10 4.7 10 3 C6.7 3 3.4 3 0 3 C0 2.01 0 1.02 0 0 Z " fill="#4D0000" transform="translate(162,154)"/>
<path d="M0 0 C0 4.29 0 8.58 0 13 C-2.00557404 9.99163894 -2.92859014 7.42851156 -4 4 C-4.33 3.01 -4.66 2.02 -5 1 C-2 0 -2 0 0 0 Z " fill="#291414" transform="translate(179,141)"/>
<path d="M0 0 C-2.83857423 2.83857423 -6.13326348 2.90046025 -10 3 C-10.99 2.67 -11.98 2.34 -13 2 C-13 1.34 -13 0.68 -13 0 C-4.57142857 -1.28571429 -4.57142857 -1.28571429 0 0 Z " fill="#860000" transform="translate(129,138)"/>
<path d="M0 0 C-4.75 4.875 -4.75 4.875 -7 6 C-7.66 4.35 -8.32 2.7 -9 1 C-2.25 -1.125 -2.25 -1.125 0 0 Z " fill="#370B0B" transform="translate(156,142)"/>
<path d="M0 0 C-6.28571429 4.42857143 -6.28571429 4.42857143 -10 5 C-10.33 4.01 -10.66 3.02 -11 2 C-9.68 2 -8.36 2 -7 2 C-7 1.34 -7 0.68 -7 0 C-3.98968256 -0.93423645 -3.13349732 -1.04449911 0 0 Z " fill="#411111" transform="translate(131,141)"/>
<path d="M0 0 C0.66 0 1.32 0 2 0 C2.66 2.64 3.32 5.28 4 8 C2.68 7.67 1.36 7.34 0 7 C-0.99 7.495 -0.99 7.495 -2 8 C-1.34 5.36 -0.68 2.72 0 0 Z " fill="#B80303" transform="translate(150,94)"/>
<path d="M0 0 C2.97 0 5.94 0 9 0 C9 0.66 9 1.32 9 2 C7.35 2.66 5.7 3.32 4 4 C2.68 2.68 1.36 1.36 0 0 Z " fill="#720303" transform="translate(92,137)"/>
<path d="M0 0 C0 0.66 0 1.32 0 2 C-4.01804691 2.84098656 -7.01803543 3.05404945 -11 2 C-11 1.67 -11 1.34 -11 1 C-3.375 0 -3.375 0 0 0 Z " fill="#381515" transform="translate(173,174)"/>
<path d="M0 0 C0.598125 0.20625 1.19625 0.4125 1.8125 0.625 C0.4925 2.275 -0.8275 3.925 -2.1875 5.625 C-2.1875 4.635 -2.1875 3.645 -2.1875 2.625 C-3.1775 2.295 -4.1675 1.965 -5.1875 1.625 C-2.1875 -0.375 -2.1875 -0.375 0 0 Z " fill="#400D0D" transform="translate(193.1875,140.375)"/>
</svg>
